<svg width="22" height="22" viewBox="0 0 22 22" fill="none" xmlns="http://www.w3.org/2000/svg">
<path d="M2.75002 8.93751C1.35669 8.93751 0.229187 7.81001 0.229187 6.41668C0.229187 5.02334 1.35669 3.89584 2.75002 3.89584C4.14335 3.89584 5.27085 5.02334 5.27085 6.41668C5.27085 7.81001 4.14335 8.93751 2.75002 8.93751ZM2.75002 5.27084C2.11752 5.27084 1.60419 5.78418 1.60419 6.41668C1.60419 7.04918 2.11752 7.56251 2.75002 7.56251C3.38252 7.56251 3.89585 7.04918 3.89585 6.41668C3.89585 5.78418 3.38252 5.27084 2.75002 5.27084Z" fill="#1370E4"/>
<path d="M19.25 8.93751C17.8567 8.93751 16.7292 7.81001 16.7292 6.41668C16.7292 5.02334 17.8567 3.89584 19.25 3.89584C20.6434 3.89584 21.7709 5.02334 21.7709 6.41668C21.7709 7.81001 20.6434 8.93751 19.25 8.93751ZM19.25 5.27084C18.6175 5.27084 18.1042 5.78418 18.1042 6.41668C18.1042 7.04918 18.6175 7.56251 19.25 7.56251C19.8825 7.56251 20.3959 7.04918 20.3959 6.41668C20.3959 5.78418 19.8825 5.27084 19.25 5.27084Z" fill="#1370E4"/>
<path d="M17.4167 7.10416H13.75C13.3742 7.10416 13.0625 6.79249 13.0625 6.41666C13.0625 6.04082 13.3742 5.72916 13.75 5.72916H17.4167C17.7925 5.72916 18.1042 6.04082 18.1042 6.41666C18.1042 6.79249 17.7925 7.10416 17.4167 7.10416Z" fill="#1370E4"/>
<path d="M8.24998 7.10416H4.58331C4.20748 7.10416 3.89581 6.79249 3.89581 6.41666C3.89581 6.04082 4.20748 5.72916 4.58331 5.72916H8.24998C8.62581 5.72916 8.93748 6.04082 8.93748 6.41666C8.93748 6.79249 8.62581 7.10416 8.24998 7.10416Z" fill="#1370E4"/>
<path d="M5.50002 19.0208H3.66669C2.53002 19.0208 1.60419 18.095 1.60419 16.9583V15.125C1.60419 13.9883 2.53002 13.0625 3.66669 13.0625H5.50002C6.63669 13.0625 7.56252 13.9883 7.56252 15.125V16.9583C7.56252 17.7833 7.07669 18.5167 6.32502 18.8375C6.07752 18.9567 5.79335 19.0208 5.50002 19.0208ZM3.66669 14.4375C3.29085 14.4375 2.97919 14.7492 2.97919 15.125V16.9583C2.97919 17.3342 3.29085 17.6458 3.66669 17.6458H5.50002C5.59169 17.6458 5.67419 17.6275 5.76585 17.5817C6.03169 17.4717 6.18752 17.2242 6.18752 16.9583V15.125C6.18752 14.7492 5.87585 14.4375 5.50002 14.4375H3.66669Z" fill="#1370E4"/>
<path d="M18.3333 19.0208H16.5C16.2067 19.0208 15.9225 18.9567 15.6475 18.8284C14.9233 18.5259 14.4375 17.7833 14.4375 16.9583V15.125C14.4375 13.9883 15.3633 13.0625 16.5 13.0625H18.3333C19.47 13.0625 20.3958 13.9883 20.3958 15.125V16.9583C20.3958 18.095 19.47 19.0208 18.3333 19.0208ZM16.5 14.4375C16.1242 14.4375 15.8125 14.7492 15.8125 15.125V16.9583C15.8125 17.2242 15.9683 17.4717 16.2067 17.5725C16.3258 17.6275 16.4083 17.6458 16.5 17.6458H18.3333C18.7092 17.6458 19.0208 17.3342 19.0208 16.9583V15.125C19.0208 14.7492 18.7092 14.4375 18.3333 14.4375H16.5Z" fill="#1370E4"/>
<path d="M12.375 9.85416H9.625C8.48833 9.85416 7.5625 8.92832 7.5625 7.79166V5.04166C7.5625 3.90499 8.48833 2.97916 9.625 2.97916H12.375C13.5117 2.97916 14.4375 3.90499 14.4375 5.04166V7.79166C14.4375 8.92832 13.5117 9.85416 12.375 9.85416ZM9.625 4.35416C9.24917 4.35416 8.9375 4.66582 8.9375 5.04166V7.79166C8.9375 8.16749 9.24917 8.47916 9.625 8.47916H12.375C12.7508 8.47916 13.0625 8.16749 13.0625 7.79166V5.04166C13.0625 4.66582 12.7508 4.35416 12.375 4.35416H9.625Z" fill="#1370E4"/>
<path d="M17.3889 14.4375C17.3614 14.4375 17.3339 14.4375 17.3064 14.4375C16.9306 14.3917 16.6556 14.0525 16.7014 13.6767C16.7198 13.5484 16.7198 13.4292 16.7198 13.3008C16.7198 10.9175 15.4273 8.71747 13.4289 7.70913C13.0898 7.53497 12.9523 7.12252 13.1264 6.78335C13.3006 6.44418 13.7131 6.30667 14.0523 6.48083C16.5089 7.7275 18.0948 10.4042 18.0948 13.3008C18.0948 13.4842 18.0856 13.6583 18.0581 13.8416C18.0306 14.1808 17.7373 14.4375 17.3889 14.4375Z" fill="#1370E4"/>
<path d="M4.61081 14.4375C4.26248 14.4375 3.96915 14.1808 3.93248 13.8325C3.91415 13.6491 3.89581 13.475 3.89581 13.2917C3.89581 10.395 5.48165 7.71834 7.93831 6.47168C8.27748 6.29751 8.68998 6.43503 8.86415 6.77419C9.03831 7.11336 8.90081 7.52587 8.56165 7.70004C6.56331 8.70837 5.27081 10.9083 5.27081 13.2917C5.27081 13.42 5.27998 13.5392 5.28915 13.6675C5.33498 14.0434 5.05998 14.3825 4.68415 14.4283C4.66581 14.4375 4.63831 14.4375 4.61081 14.4375Z" fill="#1370E4"/>
</svg>
