<svg width="22" height="22" viewBox="0 0 22 22" fill="none" xmlns="http://www.w3.org/2000/svg">
<path d="M6.41665 8.02084H3.66665C2.27331 8.02084 1.14581 6.89334 1.14581 5.5V3.66667C1.14581 2.27334 2.27331 1.14584 3.66665 1.14584H6.41665C7.80998 1.14584 8.93748 2.27334 8.93748 3.66667V5.5C8.93748 6.89334 7.80998 8.02084 6.41665 8.02084ZM3.66665 2.52084C3.03415 2.52084 2.52081 3.03417 2.52081 3.66667V5.5C2.52081 6.1325 3.03415 6.64584 3.66665 6.64584H6.41665C7.04915 6.64584 7.56248 6.1325 7.56248 5.5V3.66667C7.56248 3.03417 7.04915 2.52084 6.41665 2.52084H3.66665Z" fill="#1370E4"/>
<path d="M19.0667 7.10417H15.7667C14.7767 7.10417 13.9792 6.29749 13.9792 5.31666V3.85001C13.9792 2.86001 14.7859 2.0625 15.7667 2.0625H19.0667C20.0567 2.0625 20.8542 2.86918 20.8542 3.85001V5.31666C20.8542 6.30666 20.0567 7.10417 19.0667 7.10417ZM15.7667 3.4375C15.5467 3.4375 15.3542 3.63001 15.3542 3.85001V5.31666C15.3542 5.53666 15.5467 5.72917 15.7667 5.72917H19.0667C19.2867 5.72917 19.4792 5.53666 19.4792 5.31666V3.85001C19.4792 3.63001 19.2867 3.4375 19.0667 3.4375H15.7667Z" fill="#1370E4"/>
<path d="M19.0667 13.9792H15.7667C14.7767 13.9792 13.9792 13.1725 13.9792 12.1917V10.725C13.9792 9.73501 14.7859 8.9375 15.7667 8.9375H19.0667C20.0567 8.9375 20.8542 9.74418 20.8542 10.725V12.1917C20.8542 13.1817 20.0567 13.9792 19.0667 13.9792ZM15.7667 10.3125C15.5467 10.3125 15.3542 10.505 15.3542 10.725V12.1917C15.3542 12.4117 15.5467 12.6042 15.7667 12.6042H19.0667C19.2867 12.6042 19.4792 12.4117 19.4792 12.1917V10.725C19.4792 10.505 19.2867 10.3125 19.0667 10.3125H15.7667Z" fill="#1370E4"/>
<path d="M14.6667 5.27084H8.25C7.87417 5.27084 7.5625 4.95917 7.5625 4.58334C7.5625 4.2075 7.87417 3.89584 8.25 3.89584H14.6667C15.0425 3.89584 15.3542 4.2075 15.3542 4.58334C15.3542 4.95917 15.0425 5.27084 14.6667 5.27084Z" fill="#1370E4"/>
<path d="M11.4583 4.58334V16.5C11.4583 17.5083 12.2833 18.3333 13.2916 18.3333H14.6666" fill="white"/>
<path d="M14.6666 19.0208H13.2916C11.8983 19.0208 10.7708 17.8933 10.7708 16.5V4.58334C10.7708 4.2075 11.0825 3.89584 11.4583 3.89584C11.8341 3.89584 12.1458 4.2075 12.1458 4.58334V16.5C12.1458 17.1325 12.6591 17.6458 13.2916 17.6458H14.6666C15.0425 17.6458 15.3541 17.9575 15.3541 18.3333C15.3541 18.7092 15.0425 19.0208 14.6666 19.0208Z" fill="#1370E4"/>
<path d="M14.6666 12.1458H11.4583C11.0825 12.1458 10.7708 11.8342 10.7708 11.4583C10.7708 11.0825 11.0825 10.7708 11.4583 10.7708H14.6666C15.0425 10.7708 15.3541 11.0825 15.3541 11.4583C15.3541 11.8342 15.0425 12.1458 14.6666 12.1458Z" fill="#1370E4"/>
<path d="M19.0667 20.8542H15.7667C14.7767 20.8542 13.9792 20.0475 13.9792 19.0667V17.6C13.9792 16.61 14.7859 15.8125 15.7667 15.8125H19.0667C20.0567 15.8125 20.8542 16.6192 20.8542 17.6V19.0667C20.8542 20.0567 20.0567 20.8542 19.0667 20.8542ZM15.7667 17.1875C15.5467 17.1875 15.3542 17.38 15.3542 17.6V19.0667C15.3542 19.2867 15.5467 19.4792 15.7667 19.4792H19.0667C19.2867 19.4792 19.4792 19.2867 19.4792 19.0667V17.6C19.4792 17.38 19.2867 17.1875 19.0667 17.1875H15.7667Z" fill="#1370E4"/>
</svg>
