<svg width="30" height="30" viewBox="0 0 30 30" fill="none" xmlns="http://www.w3.org/2000/svg">
<rect width="30" height="30" rx="6" fill="white"/>
<path d="M15.1463 14.6517C15.1188 14.6517 15.1005 14.6517 15.073 14.6517C15.0271 14.6425 14.963 14.6425 14.908 14.6517C12.2496 14.5692 10.2421 12.4792 10.2421 9.90334C10.2421 7.28168 12.378 5.14584 14.9996 5.14584C17.6213 5.14584 19.7571 7.28168 19.7571 9.90334C19.748 12.4792 17.7313 14.5692 15.1738 14.6517C15.1646 14.6517 15.1555 14.6517 15.1463 14.6517ZM14.9996 6.52084C13.1388 6.52084 11.6171 8.04251 11.6171 9.90334C11.6171 11.7367 13.0471 13.2125 14.8713 13.2767C14.9171 13.2675 15.0455 13.2675 15.1646 13.2767C16.9613 13.1942 18.373 11.7183 18.3821 9.90334C18.3821 8.04251 16.8605 6.52084 14.9996 6.52084Z" fill="#1370E4"/>
<path d="M15.1555 24.6708C13.3588 24.6708 11.553 24.2125 10.1871 23.2958C8.91298 22.4525 8.21631 21.2975 8.21631 20.0417C8.21631 18.7858 8.91298 17.6217 10.1871 16.7692C12.9371 14.945 17.3921 14.945 20.1238 16.7692C21.3888 17.6125 22.0946 18.7675 22.0946 20.0233C22.0946 21.2792 21.398 22.4433 20.1238 23.2958C18.7488 24.2125 16.9521 24.6708 15.1555 24.6708ZM10.948 17.9242C10.068 18.5108 9.59131 19.2625 9.59131 20.0508C9.59131 20.83 10.0771 21.5817 10.948 22.1592C13.2305 23.69 17.0805 23.69 19.363 22.1592C20.243 21.5725 20.7196 20.8208 20.7196 20.0325C20.7196 19.2533 20.2338 18.5017 19.363 17.9242C17.0805 16.4025 13.2305 16.4025 10.948 17.9242Z" fill="#1370E4"/>
</svg>
