<svg width="22" height="22" viewBox="0 0 22 22" fill="none" xmlns="http://www.w3.org/2000/svg">
<path d="M14.6667 20.8542H7.33333C4.18 20.8542 2.0625 18.7367 2.0625 15.5833V6.41666C2.0625 3.26333 4.18 1.14583 7.33333 1.14583H11.8525C13.2642 1.14583 14.5842 1.69582 15.5833 2.68582L18.3975 5.49999C19.3967 6.48999 19.9375 7.81917 19.9375 9.23083V15.5833C19.9375 18.7367 17.82 20.8542 14.6667 20.8542ZM7.33333 2.52083C4.96833 2.52083 3.4375 4.05166 3.4375 6.41666V15.5833C3.4375 17.9483 4.96833 19.4792 7.33333 19.4792H14.6667C17.0317 19.4792 18.5625 17.9483 18.5625 15.5833V9.23083C18.5625 8.18583 18.1592 7.21417 17.4167 6.48083L14.6025 3.66666C13.8692 2.93333 12.8883 2.53 11.8433 2.53H7.33333V2.52083Z" fill="#1370E4"/>
<path d="M8.7083 17.1875C8.53413 17.1875 8.35997 17.1233 8.22247 16.9858L6.38913 15.1525C6.1233 14.8867 6.1233 14.4466 6.38913 14.1808L8.22247 12.3474C8.4883 12.0816 8.9283 12.0816 9.19413 12.3474C9.45996 12.6133 9.45996 13.0533 9.19413 13.3192L7.84663 14.6666L9.19413 16.0141C9.45996 16.2799 9.45996 16.72 9.19413 16.9858C9.05663 17.1233 8.88247 17.1875 8.7083 17.1875Z" fill="#1370E4"/>
<path d="M13.2916 17.1875C13.1174 17.1875 12.9433 17.1233 12.8058 16.9858C12.5399 16.72 12.5399 16.2799 12.8058 16.0141L14.1533 14.6666L12.8058 13.3192C12.5399 13.0533 12.5399 12.6133 12.8058 12.3474C13.0716 12.0816 13.5116 12.0816 13.7774 12.3474L15.6108 14.1808C15.8766 14.4466 15.8766 14.8867 15.6108 15.1525L13.7774 16.9858C13.6399 17.1233 13.4658 17.1875 13.2916 17.1875Z" fill="#1370E4"/>
</svg>
