<svg width="22" height="22" viewBox="0 0 22 22" fill="none" xmlns="http://www.w3.org/2000/svg">
<path d="M16.1517 8.81833H11.3392C10.9633 8.81833 10.6517 8.50666 10.6517 8.13083C10.6517 7.755 10.9633 7.44333 11.3392 7.44333H16.1517C16.5275 7.44333 16.8392 7.755 16.8392 8.13083C16.8392 8.50666 16.5367 8.81833 16.1517 8.81833Z" fill="#1370E4"/>
<path d="M6.52664 9.51501C6.35247 9.51501 6.17831 9.45085 6.04081 9.31335L5.35331 8.62585C5.08747 8.36001 5.08747 7.92001 5.35331 7.65418C5.61914 7.38835 6.05914 7.38835 6.32497 7.65418L6.52664 7.85585L8.10331 6.27918C8.36914 6.01335 8.80914 6.01335 9.07497 6.27918C9.34081 6.54501 9.34081 6.98501 9.07497 7.25085L7.01247 9.31335C6.88414 9.44168 6.70997 9.51501 6.52664 9.51501Z" fill="#1370E4"/>
<path d="M16.1517 15.235H11.3392C10.9633 15.235 10.6517 14.9233 10.6517 14.5475C10.6517 14.1717 10.9633 13.86 11.3392 13.86H16.1517C16.5275 13.86 16.8392 14.1717 16.8392 14.5475C16.8392 14.9233 16.5367 15.235 16.1517 15.235Z" fill="#1370E4"/>
<path d="M6.52664 15.9317C6.35247 15.9317 6.17831 15.8675 6.04081 15.73L5.35331 15.0425C5.08747 14.7767 5.08747 14.3367 5.35331 14.0708C5.61914 13.805 6.05914 13.805 6.32497 14.0708L6.52664 14.2725L8.10331 12.6958C8.36914 12.43 8.80914 12.43 9.07497 12.6958C9.34081 12.9617 9.34081 13.4017 9.07497 13.6675L7.01247 15.73C6.88414 15.8583 6.70997 15.9317 6.52664 15.9317Z" fill="#1370E4"/>
<path d="M13.75 20.8542H8.24998C3.27248 20.8542 1.14581 18.7275 1.14581 13.75V8.25001C1.14581 3.27251 3.27248 1.14584 8.24998 1.14584H13.75C18.7275 1.14584 20.8541 3.27251 20.8541 8.25001V13.75C20.8541 18.7275 18.7275 20.8542 13.75 20.8542ZM8.24998 2.52084C4.02415 2.52084 2.52081 4.02418 2.52081 8.25001V13.75C2.52081 17.9758 4.02415 19.4792 8.24998 19.4792H13.75C17.9758 19.4792 19.4791 17.9758 19.4791 13.75V8.25001C19.4791 4.02418 17.9758 2.52084 13.75 2.52084H8.24998Z" fill="#1370E4"/>
</svg>
