<svg width="364" height="112" viewBox="0 0 364 112" fill="none" xmlns="http://www.w3.org/2000/svg">
<path d="M46.5874 53.1668H20.1558L15.6219 68.8906H2.02031L18.5159 15.0629C19.6735 11.2043 20.8954 8.21385 22.1816 6.09161C23.4678 3.96937 24.9791 2.45808 26.7155 1.55773C28.5162 0.657387 30.7349 0.207215 33.3716 0.207215C36.0083 0.207215 38.1949 0.657387 39.9312 1.55773C41.6676 2.45808 43.1789 3.96937 44.4651 6.09161C45.8156 8.21385 47.0697 11.2043 48.2273 15.0629L64.7229 68.8906H51.1212L46.5874 53.1668ZM43.5969 43.0379L35.4938 15.2558C35.0437 13.5838 34.3362 12.7477 33.3716 12.7477C32.4069 12.7477 31.6995 13.5838 31.2493 15.2558L23.1462 43.0379H43.5969ZM93.6527 68.8906C85.421 68.8906 79.5044 67.0899 75.9031 63.4886C72.366 59.8872 70.5975 54.678 70.5975 47.8612V1.3648H84.1991V47.8612C84.1991 51.3982 84.9708 54.0349 86.5143 55.7713C88.0577 57.4434 90.4372 58.2794 93.6527 58.2794H115.261V68.8906H93.6527ZM145.849 68.8906C137.296 68.8906 131.154 67.0899 127.424 63.4886C123.694 59.8872 121.829 54.678 121.829 47.8612V22.3943C121.829 15.5774 123.694 10.3682 127.424 6.76686C131.154 3.16549 137.296 1.3648 145.849 1.3648H168.422V11.976H145.849C142.312 11.976 139.675 12.812 137.939 14.4841C136.267 16.1562 135.431 18.7929 135.431 22.3943V29.8221H164.177V40.4333H135.431V47.8612C135.431 51.3982 136.267 54.0349 137.939 55.7713C139.675 57.4434 142.312 58.2794 145.849 58.2794H168.615V68.8906H145.849ZM209.732 35.9959L230.183 68.8906H214.749L200.954 46.6071L187.159 68.8906H172.014L193.43 34.4525L172.979 1.3648H188.317L202.208 23.8413L216.099 1.3648H231.148L209.732 35.9959ZM260.207 70.0482C251.268 70.0482 244.419 67.9903 239.66 63.8744C234.965 59.6943 232.618 53.5526 232.618 45.4495V24.8059C232.618 16.7028 234.965 10.5933 239.66 6.47747C244.419 2.2973 251.268 0.207215 260.207 0.207215C269.146 0.207215 275.963 2.2973 280.658 6.47747C285.417 10.5933 287.796 16.7028 287.796 24.8059V45.4495C287.796 53.5526 285.417 59.6943 280.658 63.8744C275.963 67.9903 269.146 70.0482 260.207 70.0482ZM260.207 59.437C264.709 59.437 268.149 58.2473 270.529 55.8678C272.973 53.424 274.195 49.9512 274.195 45.4495V24.8059C274.195 20.3042 272.973 16.8636 270.529 14.4841C268.149 12.0403 264.709 10.8184 260.207 10.8184C255.705 10.8184 252.233 12.0403 249.789 14.4841C247.409 16.8636 246.22 20.3042 246.22 24.8059V45.4495C246.22 49.9512 247.409 53.424 249.789 55.8678C252.233 58.2473 255.705 59.437 260.207 59.437ZM356.831 1.3648V52.9738C356.831 58.183 355.77 62.138 353.647 64.8391C351.525 67.5401 348.117 68.8906 343.422 68.8906H333.872L314 22.8766V68.8906H301.267V1.3648H316.605L341.107 57.3148H341.3C342.393 57.3148 343.133 56.8646 343.519 55.9643C343.904 54.9996 344.097 53.2954 344.097 50.8516V1.3648H356.831Z" fill="white"/>
<path d="M8.98104 110.781C6.56795 110.781 4.81037 110.268 3.70833 109.242C2.60629 108.197 2.05526 106.668 2.05526 104.654V96.9582C2.05526 94.9441 2.60629 93.424 3.70833 92.398C4.81037 91.353 6.56795 90.8304 8.98104 90.8304H15.7073V93.481H8.98104C7.765 93.481 6.86246 93.7661 6.27343 94.3361C5.70341 94.8871 5.4184 95.7611 5.4184 96.9582V99.4948H14.3963V102.117H5.4184V104.654C5.4184 105.851 5.70341 106.734 6.27343 107.304C6.86246 107.855 7.765 108.131 8.98104 108.131H15.8213V110.781H8.98104ZM35.4914 90.8304V106.649C35.4914 108.017 35.2063 109.052 34.6363 109.755C34.0853 110.439 33.2018 110.781 31.9857 110.781H29.6201L22.5803 96.1032V110.781H19.4167V90.8304H23.2644L31.3872 107.903H31.5297C31.8337 107.903 32.0427 107.779 32.1567 107.532C32.2707 107.266 32.3277 106.81 32.3277 106.164V90.8304H35.4914ZM44.4846 93.481H38.2998V90.8304H54.004V93.481H47.8477V110.781H44.4846V93.481ZM62.6155 110.781C60.2024 110.781 58.4449 110.268 57.3428 109.242C56.2408 108.197 55.6898 106.668 55.6898 104.654V96.9582C55.6898 94.9441 56.2408 93.424 57.3428 92.398C58.4449 91.353 60.2024 90.8304 62.6155 90.8304H69.3418V93.481H62.6155C61.3995 93.481 60.497 93.7661 59.9079 94.3361C59.3379 94.8871 59.0529 95.7611 59.0529 96.9582V99.4948H68.0308V102.117H59.0529V104.654C59.0529 105.851 59.3379 106.734 59.9079 107.304C60.497 107.855 61.3995 108.131 62.6155 108.131H69.4558V110.781H62.6155ZM88.8408 110.781H85.2782L83.9386 106.136C83.6726 105.205 83.3971 104.482 83.1121 103.969C82.8271 103.437 82.4281 103.038 81.9151 102.772C81.421 102.506 80.7465 102.373 79.8915 102.373H76.4143V110.781H73.0512V90.8304H81.288C83.5301 90.8304 85.2022 91.3055 86.3042 92.2555C87.4063 93.2055 87.9573 94.6401 87.9573 96.5592C87.9573 97.9082 87.6153 98.9913 86.9313 99.8083C86.2472 100.625 85.2877 101.138 84.0526 101.347C84.9837 101.67 85.6962 102.221 86.1902 103C86.6843 103.779 87.1213 104.825 87.5013 106.136L88.8408 110.781ZM81.288 99.7228C82.2761 99.7228 83.0741 99.4568 83.6821 98.9248C84.2902 98.3927 84.5942 97.6232 84.5942 96.6162C84.5942 95.5901 84.2902 94.8111 83.6821 94.2791C83.0741 93.7471 82.2761 93.481 81.288 93.481H76.4143V99.7228H81.288ZM92.3118 90.8304H100.52C102.781 90.8304 104.463 91.3435 105.565 92.3695C106.667 93.3765 107.218 94.9156 107.218 96.9867C107.218 99.0768 106.667 100.635 105.565 101.661C104.463 102.668 102.781 103.171 100.52 103.171H95.6749V110.781H92.3118V90.8304ZM100.549 100.521C101.537 100.521 102.335 100.226 102.943 99.6373C103.551 99.0293 103.855 98.1457 103.855 96.9867C103.855 95.8276 103.551 94.9536 102.943 94.3646C102.335 93.7756 101.537 93.481 100.549 93.481H95.6749V100.521H100.549ZM126.165 110.781H122.602L121.263 106.136C120.997 105.205 120.721 104.482 120.436 103.969C120.151 103.437 119.752 103.038 119.239 102.772C118.745 102.506 118.071 102.373 117.216 102.373H113.739V110.781H110.375V90.8304H118.612C120.854 90.8304 122.526 91.3055 123.629 92.2555C124.731 93.2055 125.282 94.6401 125.282 96.5592C125.282 97.9082 124.94 98.9913 124.256 99.8083C123.572 100.625 122.612 101.138 121.377 101.347C122.308 101.67 123.02 102.221 123.515 103C124.009 103.779 124.446 104.825 124.826 106.136L126.165 110.781ZM118.612 99.7228C119.6 99.7228 120.398 99.4568 121.006 98.9248C121.614 98.3927 121.918 97.6232 121.918 96.6162C121.918 95.5901 121.614 94.8111 121.006 94.2791C120.398 93.7471 119.6 93.481 118.612 93.481H113.739V99.7228H118.612ZM129.636 90.8304H132.999V110.781H129.636V90.8304ZM144.226 111.123C142.915 111.123 141.804 110.99 140.892 110.724C139.999 110.439 139.229 110.031 138.583 109.499C137.937 108.967 137.282 108.264 136.617 107.39L138.897 105.48C139.676 106.563 140.455 107.333 141.234 107.789C142.032 108.245 143.02 108.473 144.198 108.473C145.794 108.473 146.982 108.216 147.761 107.703C148.54 107.19 148.929 106.402 148.929 105.338C148.929 104.749 148.758 104.273 148.416 103.912C148.093 103.532 147.514 103.209 146.677 102.943C145.86 102.658 144.635 102.345 143.001 102.003C141.139 101.623 139.752 100.958 138.84 100.008C137.928 99.0578 137.472 97.7942 137.472 96.2172C137.472 95.0581 137.766 94.0511 138.355 93.196C138.944 92.322 139.78 91.657 140.863 91.201C141.946 90.7259 143.219 90.4884 144.682 90.4884C146.468 90.4884 147.922 90.7639 149.043 91.315C150.183 91.866 151.086 92.683 151.751 93.7661L149.528 95.5901C148.787 94.7351 148.055 94.1176 147.333 93.7376C146.63 93.3385 145.737 93.139 144.654 93.139C143.438 93.139 142.497 93.4145 141.832 93.9656C141.167 94.4976 140.835 95.2576 140.835 96.2457C140.835 97.1387 141.205 97.8227 141.946 98.2977C142.687 98.7538 143.713 99.1243 145.024 99.4093C146.715 99.7513 148.065 100.131 149.072 100.549C150.079 100.948 150.867 101.528 151.437 102.288C152.007 103.048 152.292 104.064 152.292 105.338C152.292 109.195 149.604 111.123 144.226 111.123ZM161.98 110.781C159.567 110.781 157.809 110.268 156.707 109.242C155.605 108.197 155.054 106.668 155.054 104.654V96.9582C155.054 94.9441 155.605 93.424 156.707 92.398C157.809 91.353 159.567 90.8304 161.98 90.8304H168.706V93.481H161.98C160.764 93.481 159.861 93.7661 159.272 94.3361C158.702 94.8871 158.417 95.7611 158.417 96.9582V99.4948H167.395V102.117H158.417V104.654C158.417 105.851 158.702 106.734 159.272 107.304C159.861 107.855 160.764 108.131 161.98 108.131H168.82V110.781H161.98ZM180.07 90.8304H183.433V110.781H180.07V90.8304ZM204.55 90.8304V106.649C204.55 108.017 204.265 109.052 203.695 109.755C203.144 110.439 202.26 110.781 201.044 110.781H198.679L191.639 96.1032V110.781H188.475V90.8304H192.323L200.446 107.903H200.588C200.892 107.903 201.101 107.779 201.215 107.532C201.329 107.266 201.386 106.81 201.386 106.164V90.8304H204.55ZM225.286 90.8304V106.649C225.286 108.017 225.001 109.052 224.431 109.755C223.88 110.439 222.996 110.781 221.78 110.781H219.414L212.375 96.1032V110.781H209.211V90.8304H213.059L221.182 107.903H221.324C221.628 107.903 221.837 107.779 221.951 107.532C222.065 107.266 222.122 106.81 222.122 106.164V90.8304H225.286ZM237.158 111.123C234.554 111.123 232.559 110.506 231.172 109.271C229.785 108.036 229.092 106.231 229.092 103.855V97.7562C229.092 95.3811 229.785 93.5761 231.172 92.341C232.559 91.106 234.554 90.4884 237.158 90.4884C239.761 90.4884 241.746 91.106 243.114 92.341C244.501 93.5761 245.195 95.3811 245.195 97.7562V103.855C245.195 106.231 244.501 108.036 243.114 109.271C241.746 110.506 239.761 111.123 237.158 111.123ZM237.158 108.473C238.659 108.473 239.808 108.083 240.606 107.304C241.423 106.506 241.832 105.357 241.832 103.855V97.7562C241.832 96.2552 241.423 95.1151 240.606 94.3361C239.808 93.538 238.659 93.139 237.158 93.139C235.637 93.139 234.469 93.538 233.652 94.3361C232.854 95.1151 232.455 96.2552 232.455 97.7562V103.855C232.455 105.357 232.854 106.506 233.652 107.304C234.469 108.083 235.637 108.473 237.158 108.473ZM255.409 111.123C254.364 111.123 253.538 110.819 252.93 110.211C252.341 109.603 251.818 108.53 251.362 106.991L246.631 90.8304H249.994L254.554 106.934C254.668 107.314 254.782 107.589 254.896 107.76C255.029 107.931 255.2 108.017 255.409 108.017C255.599 108.017 255.761 107.931 255.894 107.76C256.027 107.589 256.141 107.314 256.236 106.934L260.796 90.8304H264.159L259.428 106.991C258.972 108.53 258.44 109.603 257.832 110.211C257.243 110.819 256.435 111.123 255.409 111.123ZM276.302 105.537H268.122L266.555 110.781H263.192L268.179 94.6211C268.502 93.557 268.835 92.7305 269.177 92.1415C269.538 91.5525 269.956 91.1345 270.431 90.8874C270.906 90.6214 271.505 90.4884 272.227 90.4884C272.93 90.4884 273.519 90.6214 273.994 90.8874C274.469 91.1345 274.887 91.5525 275.248 92.1415C275.609 92.7305 275.951 93.557 276.274 94.6211L281.233 110.781H277.87L276.302 105.537ZM275.561 103.029L273.082 94.6781C272.968 94.2981 272.844 94.0226 272.711 93.8516C272.597 93.6806 272.436 93.5951 272.227 93.5951C272.018 93.5951 271.847 93.6806 271.714 93.8516C271.581 94.0226 271.457 94.2981 271.343 94.6781L268.864 103.029H275.561ZM285.909 93.481H279.725V90.8304H295.429V93.481H289.273V110.781H285.909V93.481ZM298.583 90.8304H301.946V110.781H298.583V90.8304ZM314.2 111.123C311.597 111.123 309.602 110.506 308.214 109.271C306.827 108.036 306.134 106.231 306.134 103.855V97.7562C306.134 95.3811 306.827 93.5761 308.214 92.341C309.602 91.106 311.597 90.4884 314.2 90.4884C316.803 90.4884 318.788 91.106 320.156 92.341C321.544 93.5761 322.237 95.3811 322.237 97.7562V103.855C322.237 106.231 321.544 108.036 320.156 109.271C318.788 110.506 316.803 111.123 314.2 111.123ZM314.2 108.473C315.701 108.473 316.85 108.083 317.648 107.304C318.465 106.506 318.874 105.357 318.874 103.855V97.7562C318.874 96.2552 318.465 95.1151 317.648 94.3361C316.85 93.538 315.701 93.139 314.2 93.139C312.68 93.139 311.511 93.538 310.694 94.3361C309.896 95.1151 309.497 96.2552 309.497 97.7562V103.855C309.497 105.357 309.896 106.506 310.694 107.304C311.511 108.083 312.68 108.473 314.2 108.473ZM342.463 90.8304V106.649C342.463 108.017 342.178 109.052 341.608 109.755C341.057 110.439 340.174 110.781 338.958 110.781H336.592L329.552 96.1032V110.781H326.389V90.8304H330.236L338.359 107.903H338.502C338.806 107.903 339.015 107.779 339.129 107.532C339.243 107.266 339.3 106.81 339.3 106.164V90.8304H342.463ZM353.309 111.123C351.998 111.123 350.886 110.99 349.974 110.724C349.081 110.439 348.312 110.031 347.666 109.499C347.02 108.967 346.364 108.264 345.699 107.39L347.979 105.48C348.758 106.563 349.537 107.333 350.316 107.789C351.115 108.245 352.103 108.473 353.281 108.473C354.877 108.473 356.064 108.216 356.843 107.703C357.622 107.19 358.012 106.402 358.012 105.338C358.012 104.749 357.841 104.273 357.499 103.912C357.176 103.532 356.596 103.209 355.76 102.943C354.943 102.658 353.718 102.345 352.084 102.003C350.221 101.623 348.834 100.958 347.922 100.008C347.01 99.0578 346.554 97.7942 346.554 96.2172C346.554 95.0581 346.849 94.0511 347.438 93.196C348.027 92.322 348.863 91.657 349.946 91.201C351.029 90.7259 352.302 90.4884 353.765 90.4884C355.551 90.4884 357.005 90.7639 358.126 91.315C359.266 91.866 360.168 92.683 360.833 93.7661L358.61 95.5901C357.869 94.7351 357.138 94.1176 356.416 93.7376C355.713 93.3385 354.82 93.139 353.737 93.139C352.521 93.139 351.58 93.4145 350.915 93.9656C350.25 94.4976 349.917 95.2576 349.917 96.2457C349.917 97.1387 350.288 97.8227 351.029 98.2977C351.77 98.7538 352.796 99.1243 354.107 99.4093C355.798 99.7513 357.147 100.131 358.154 100.549C359.161 100.948 359.95 101.528 360.52 102.288C361.09 103.048 361.375 104.064 361.375 105.338C361.375 109.195 358.686 111.123 353.309 111.123Z" fill="white"/>
</svg>
