<svg width="387" height="300" viewBox="0 0 387 300" fill="none" xmlns="http://www.w3.org/2000/svg">
<g filter="url(#filter0_f_2863_18664)">
<ellipse cx="189.815" cy="244.303" rx="144.646" ry="27.9041" fill="#3F94FF"/>
</g>
<g filter="url(#filter1_d_2863_18664)">
<path d="M317.054 101.513L188.514 191.217L59.9749 101.513L177.643 19.3617C180.834 17.1376 184.63 15.9452 188.52 15.9452C192.409 15.9452 196.206 17.1376 199.397 19.3617L222.868 35.7705L229.014 40.0381L290.894 83.2473L297.412 87.8243L317.054 101.513Z" fill="url(#paint0_linear_2863_18664)"/>
</g>
<path d="M167.614 176.633L59.9749 253.172V101.513L167.614 176.633Z" fill="url(#paint1_linear_2863_18664)"/>
<g filter="url(#filter2_f_2863_18664)">
<ellipse cx="251.317" cy="98.5186" rx="47.8356" ry="15.3757" fill="#FF4C77" fill-opacity="0.3"/>
</g>
<path d="M209.425 176.633L317.064 253.172V101.513L209.425 176.633Z" fill="url(#paint2_linear_2863_18664)"/>
<path d="M59.9749 253.172L177.504 169.613C180.721 167.322 184.571 166.091 188.52 166.091C192.468 166.091 196.319 167.322 199.535 169.613L317.054 253.172H59.9749Z" fill="url(#paint3_linear_2863_18664)"/>
<path d="M249.201 78.4061C251.944 78.4061 253.861 76.5333 253.861 73.9202C253.861 71.3071 251.944 69.4344 249.201 69.4344C246.5 69.4344 244.541 71.3071 244.541 73.9202C244.541 76.5333 246.5 78.4061 249.201 78.4061ZM252.946 67.8229C252.946 64.7743 254.427 63.5984 256.692 62.4225C259.74 60.8546 262.005 58.2851 262.005 54.6267C262.005 49.1827 256.822 45.3501 249.897 45.3501C242.581 45.3501 237.354 49.6618 236.832 55.7155L245.237 57.2398C245.542 54.4525 247.197 52.4056 249.549 52.4056C251.422 52.4056 252.859 53.7121 252.859 55.4977C252.859 57.2834 251.248 58.2851 249.854 59.1997C246.805 61.203 245.499 63.4677 245.499 67.8229H252.946Z" fill="white"/>
<g filter="url(#filter3_d_2863_18664)">
<path d="M73.5562 74.0313C53.8503 83.2493 32.6746 88.9237 10.9999 90.7943C13.9286 97.6023 34.7379 131.681 96.5106 159.76C98.1804 160.017 136.755 142.072 157.924 129.767C157.204 130.794 92.1689 106.864 73.5562 74.0313Z" fill="url(#paint4_linear_2863_18664)"/>
</g>
<path d="M252.794 111.328C276.481 111.328 295.684 92.1258 295.684 68.4388C295.684 44.7518 276.481 25.5496 252.794 25.5496C229.107 25.5496 209.905 44.7518 209.905 68.4388C209.905 92.1258 229.107 111.328 252.794 111.328Z" fill="url(#paint5_linear_2863_18664)"/>
<path d="M252.474 80.4456C255.972 80.4456 258.415 78.0582 258.415 74.7269C258.415 71.3957 255.972 69.0083 252.474 69.0083C249.032 69.0083 246.533 71.3957 246.533 74.7269C246.533 78.0582 249.032 80.4456 252.474 80.4456ZM257.249 66.954C257.249 63.0675 259.137 61.5684 262.024 60.0694C265.91 58.0706 268.797 54.7948 268.797 50.1311C268.797 43.1909 262.19 38.3051 253.363 38.3051C244.035 38.3051 237.372 43.8017 236.706 51.5191L247.422 53.4623C247.81 49.909 249.92 47.2995 252.918 47.2995C255.306 47.2995 257.138 48.9651 257.138 51.2415C257.138 53.5179 255.084 54.7948 253.307 55.9608C249.421 58.5148 247.755 61.4019 247.755 66.954H257.249Z" fill="white"/>
<path d="M75.0814 90.9748C74.1746 90.3456 73.0261 90.1758 71.9759 90.5155L37.4985 101.67C36.2634 102.07 35.8234 103.591 36.6544 104.588C37.3236 105.391 38.419 105.698 39.4079 105.359L74.765 93.2487C75.7627 92.907 75.9479 91.5759 75.0814 90.9748Z" fill="#C9DFFF"/>
<path d="M74.4835 104.713C73.609 103.892 72.3539 103.618 71.217 104.001L47.3487 112.034C46.2963 112.388 45.9247 113.686 46.6304 114.544C47.207 115.244 48.1572 115.514 49.016 115.222L74.0548 106.696C74.9001 106.409 75.1345 105.324 74.4835 104.713Z" fill="#C9DFFF"/>
<path d="M87.2945 111.516C86.382 110.785 85.1546 110.583 84.0559 110.982L56.5626 120.974C55.4835 121.366 55.1588 122.735 55.9467 123.57C56.5495 124.209 57.4751 124.427 58.2997 124.125L86.9526 113.61C87.8434 113.283 88.0351 112.109 87.2945 111.516Z" fill="#C9DFFF"/>
<path d="M96.9062 132.141C96.061 131.206 94.729 130.887 93.552 131.336L77.8396 137.332C76.8748 137.7 76.5269 138.887 77.1403 139.718C77.7152 140.496 78.7399 140.794 79.6423 140.444L96.4837 133.922C97.21 133.64 97.4288 132.718 96.9062 132.141Z" fill="#C9DFFF"/>
<g filter="url(#filter4_d_2863_18664)">
<path d="M301.345 121.556C325.24 132.733 350.917 139.614 377.199 141.882C373.647 150.137 348.415 191.459 273.512 225.508C271.487 225.819 224.714 204.06 199.045 189.139C199.917 190.385 278.776 161.367 301.345 121.556Z" fill="url(#paint6_linear_2863_18664)"/>
</g>
<path d="M299.497 142.101C300.597 141.338 301.989 141.133 303.263 141.545L345.068 155.07C346.566 155.554 347.1 157.399 346.092 158.608C345.281 159.582 343.952 159.954 342.753 159.543L299.881 144.859C298.671 144.444 298.446 142.83 299.497 142.101Z" fill="#C9DFFF"/>
<path d="M287.792 153.235C288.852 152.239 290.374 151.907 291.753 152.371L320.694 162.112C321.971 162.541 322.421 164.116 321.565 165.155C320.866 166.005 319.714 166.332 318.673 165.978L288.312 155.64C287.287 155.291 287.002 153.976 287.792 153.235Z" fill="#C9DFFF"/>
<path d="M275.763 162.477C276.869 161.591 278.357 161.346 279.69 161.83L313.027 173.946C314.335 174.422 314.729 176.082 313.774 177.094C313.043 177.869 311.92 178.133 310.921 177.767L276.177 165.017C275.097 164.621 274.865 163.196 275.763 162.477Z" fill="#C9DFFF"/>
<path d="M248.695 180.968C249.72 179.836 251.335 179.448 252.762 179.993L271.815 187.263C272.985 187.71 273.406 189.149 272.663 190.156C271.966 191.1 270.723 191.461 269.629 191.037L249.208 183.128C248.327 182.787 248.062 181.669 248.695 180.968Z" fill="#C9DFFF"/>
<path d="M261.132 171.093C262.259 170.386 263.651 170.24 264.901 170.697L308.8 186.747C310.203 187.26 310.543 189.09 309.418 190.072C308.673 190.722 307.634 190.914 306.707 190.573L261.423 173.891C260.201 173.441 260.029 171.785 261.132 171.093Z" fill="#C9DFFF"/>
<path d="M106.415 116.024C105.485 115.44 104.337 115.32 103.306 115.697L67.1027 128.934C65.9456 129.357 65.6653 130.865 66.5932 131.676C67.2069 132.212 68.0643 132.37 68.829 132.088L106.175 118.331C107.182 117.96 107.324 116.594 106.415 116.024Z" fill="#C9DFFF"/>
<path d="M191.404 300C274.247 300 341.404 232.843 341.404 150C341.404 67.1573 274.247 0 191.404 0C108.561 0 41.4038 67.1573 41.4038 150C41.4038 232.843 108.561 300 191.404 300Z" fill="url(#paint7_linear_2863_18664)"/>
<path d="M316.07 35.3073C316.07 38.9889 313.085 41.9735 309.404 41.9735C305.722 41.9735 302.738 38.9889 302.738 35.3073C302.738 31.6256 305.722 28.641 309.404 28.641C313.085 28.641 316.07 31.6256 316.07 35.3073Z" stroke="url(#paint8_linear_2863_18664)" stroke-width="2.61276"/>
<circle cx="87.3088" cy="267.652" r="6.66622" stroke="url(#paint9_linear_2863_18664)" stroke-width="2.61276"/>
<circle cx="279.79" cy="280.18" r="6.66622" stroke="url(#paint10_linear_2863_18664)" stroke-width="2.61276"/>
<path d="M109.196 39.1687C109.711 37.0357 112.744 37.0357 113.259 39.1687L116.243 51.5292C116.427 52.2915 117.022 52.8866 117.784 53.0706L130.145 56.0544C132.278 56.5693 132.278 59.6032 130.145 60.1181L117.784 63.1018C117.022 63.2858 116.427 63.881 116.243 64.6432L113.259 77.0038C112.744 79.1367 109.711 79.1367 109.196 77.0038L106.212 64.6432C106.028 63.881 105.433 63.2858 104.67 63.1018L92.3099 60.1181C90.177 59.6032 90.177 56.5693 92.3099 56.0544L104.67 53.0706C105.433 52.8866 106.028 52.2915 106.212 51.5292L109.196 39.1687Z" fill="url(#paint11_linear_2863_18664)"/>
<path d="M337.41 237.273C337.925 235.14 340.959 235.14 341.474 237.273L344.458 249.633C344.642 250.396 345.237 250.991 345.999 251.175L358.36 254.159C360.493 254.674 360.493 257.707 358.36 258.222L345.999 261.206C345.237 261.39 344.642 261.985 344.458 262.747L341.474 275.108C340.959 277.241 337.925 277.241 337.41 275.108L334.427 262.747C334.243 261.985 333.648 261.39 332.885 261.206L320.525 258.222C318.392 257.707 318.392 254.674 320.525 254.159L332.885 251.175C333.648 250.991 334.243 250.396 334.427 249.633L337.41 237.273Z" fill="url(#paint12_linear_2863_18664)"/>
<path d="M46.5502 217.743C47.8742 217.531 48.9312 218.831 48.4529 220.084L43.5676 232.876C43.0892 234.129 41.4342 234.394 40.5886 233.353L31.953 222.726C31.1074 221.686 31.7053 220.12 33.0293 219.908L46.5502 217.743Z" fill="url(#paint13_linear_2863_18664)"/>
<path d="M341.079 104.272C340.747 102.973 341.947 101.802 343.238 102.165L356.42 105.869C357.711 106.232 358.125 107.856 357.166 108.793L347.366 118.357C346.407 119.293 344.793 118.84 344.462 117.541L341.079 104.272Z" fill="url(#paint14_linear_2863_18664)"/>
<defs>
<filter id="filter0_f_2863_18664" x="23.3957" y="194.626" width="332.838" height="99.3542" filterUnits="userSpaceOnUse" color-interpolation-filters="sRGB">
<feFlood flood-opacity="0" result="BackgroundImageFix"/>
<feBlend mode="normal" in="SourceGraphic" in2="BackgroundImageFix" result="shape"/>
<feGaussianBlur stdDeviation="10.8865" result="effect1_foregroundBlur_2863_18664"/>
</filter>
<filter id="filter1_d_2863_18664" x="56.4912" y="15.9452" width="264.046" height="182.239" filterUnits="userSpaceOnUse" color-interpolation-filters="sRGB">
<feFlood flood-opacity="0" result="BackgroundImageFix"/>
<feColorMatrix in="SourceAlpha" type="matrix" values="0 0 0 0 0 0 0 0 0 0 0 0 0 0 0 0 0 0 127 0" result="hardAlpha"/>
<feOffset dy="3.48368"/>
<feGaussianBlur stdDeviation="1.74184"/>
<feComposite in2="hardAlpha" operator="out"/>
<feColorMatrix type="matrix" values="0 0 0 0 0 0 0 0 0 0 0 0 0 0 0 0 0 0 0.25 0"/>
<feBlend mode="normal" in2="BackgroundImageFix" result="effect1_dropShadow_2863_18664"/>
<feBlend mode="normal" in="SourceGraphic" in2="effect1_dropShadow_2863_18664" result="shape"/>
</filter>
<filter id="filter2_f_2863_18664" x="181.708" y="61.3699" width="139.217" height="74.2975" filterUnits="userSpaceOnUse" color-interpolation-filters="sRGB">
<feFlood flood-opacity="0" result="BackgroundImageFix"/>
<feBlend mode="normal" in="SourceGraphic" in2="BackgroundImageFix" result="shape"/>
<feGaussianBlur stdDeviation="10.8865" result="effect1_foregroundBlur_2863_18664"/>
</filter>
<filter id="filter3_d_2863_18664" x="0.548963" y="67.064" width="167.826" height="106.634" filterUnits="userSpaceOnUse" color-interpolation-filters="sRGB">
<feFlood flood-opacity="0" result="BackgroundImageFix"/>
<feColorMatrix in="SourceAlpha" type="matrix" values="0 0 0 0 0 0 0 0 0 0 0 0 0 0 0 0 0 0 127 0" result="hardAlpha"/>
<feOffset dy="3.48368"/>
<feGaussianBlur stdDeviation="5.22552"/>
<feComposite in2="hardAlpha" operator="out"/>
<feColorMatrix type="matrix" values="0 0 0 0 0.0196078 0 0 0 0 0.168627 0 0 0 0 0.396078 0 0 0 0.15 0"/>
<feBlend mode="normal" in2="BackgroundImageFix" result="effect1_dropShadow_2863_18664"/>
<feBlend mode="normal" in="SourceGraphic" in2="effect1_dropShadow_2863_18664" result="shape"/>
</filter>
<filter id="filter4_d_2863_18664" x="178.959" y="119.814" width="207.765" height="133.566" filterUnits="userSpaceOnUse" color-interpolation-filters="sRGB">
<feFlood flood-opacity="0" result="BackgroundImageFix"/>
<feColorMatrix in="SourceAlpha" type="matrix" values="0 0 0 0 0 0 0 0 0 0 0 0 0 0 0 0 0 0 127 0" result="hardAlpha"/>
<feOffset dx="-5.28021" dy="13.0638"/>
<feGaussianBlur stdDeviation="7.40282"/>
<feComposite in2="hardAlpha" operator="out"/>
<feColorMatrix type="matrix" values="0 0 0 0 0.021441 0 0 0 0 0.168056 0 0 0 0 0.395833 0 0 0 0.15 0"/>
<feBlend mode="normal" in2="BackgroundImageFix" result="effect1_dropShadow_2863_18664"/>
<feBlend mode="normal" in="SourceGraphic" in2="effect1_dropShadow_2863_18664" result="shape"/>
</filter>
<linearGradient id="paint0_linear_2863_18664" x1="188.514" y1="15.9452" x2="188.514" y2="191.217" gradientUnits="userSpaceOnUse">
<stop stop-color="#EDF4FF"/>
<stop offset="1" stop-color="#ABCCFF"/>
</linearGradient>
<linearGradient id="paint1_linear_2863_18664" x1="113.794" y1="101.513" x2="113.794" y2="253.172" gradientUnits="userSpaceOnUse">
<stop stop-color="#CBE2FE"/>
<stop offset="1" stop-color="#74B2FF"/>
</linearGradient>
<linearGradient id="paint2_linear_2863_18664" x1="263.245" y1="101.513" x2="263.245" y2="253.172" gradientUnits="userSpaceOnUse">
<stop stop-color="#CBE2FE"/>
<stop offset="1" stop-color="#74B2FF"/>
</linearGradient>
<linearGradient id="paint3_linear_2863_18664" x1="188.514" y1="166.091" x2="188.514" y2="253.172" gradientUnits="userSpaceOnUse">
<stop stop-color="#81B9FF"/>
<stop offset="1" stop-color="#1370E4"/>
</linearGradient>
<linearGradient id="paint4_linear_2863_18664" x1="26.9451" y1="112.186" x2="123.186" y2="93.3933" gradientUnits="userSpaceOnUse">
<stop stop-color="#C6DDFF"/>
<stop offset="1" stop-color="white"/>
</linearGradient>
<linearGradient id="paint5_linear_2863_18664" x1="210.315" y1="31.3209" x2="295.736" y2="111.616" gradientUnits="userSpaceOnUse">
<stop stop-color="#FF698D"/>
<stop offset="1" stop-color="#FF3868"/>
</linearGradient>
<linearGradient id="paint6_linear_2863_18664" x1="357.864" y1="167.821" x2="241.167" y2="145.034" gradientUnits="userSpaceOnUse">
<stop stop-color="#C6DDFF"/>
<stop offset="1" stop-color="white"/>
</linearGradient>
<linearGradient id="paint7_linear_2863_18664" x1="190.247" y1="-48.8437" x2="193.32" y2="477.934" gradientUnits="userSpaceOnUse">
<stop stop-color="#CAE0FF" stop-opacity="0"/>
<stop offset="1" stop-color="#BCD8FF"/>
</linearGradient>
<linearGradient id="paint8_linear_2863_18664" x1="299.604" y1="30.3244" x2="324.518" y2="51.9169" gradientUnits="userSpaceOnUse">
<stop stop-color="#ABD0FF"/>
<stop offset="1" stop-color="#1370E4"/>
</linearGradient>
<linearGradient id="paint9_linear_2863_18664" x1="77.5091" y1="262.669" x2="102.424" y2="284.261" gradientUnits="userSpaceOnUse">
<stop stop-color="#ABD0FF"/>
<stop offset="1" stop-color="#1370E4"/>
</linearGradient>
<linearGradient id="paint10_linear_2863_18664" x1="269.991" y1="275.197" x2="294.905" y2="296.79" gradientUnits="userSpaceOnUse">
<stop stop-color="#ABD0FF"/>
<stop offset="1" stop-color="#1370E4"/>
</linearGradient>
<linearGradient id="paint11_linear_2863_18664" x1="111.227" y1="30.7516" x2="111.227" y2="85.4209" gradientUnits="userSpaceOnUse">
<stop stop-color="#81B9FF"/>
<stop offset="1" stop-color="#1370E4"/>
</linearGradient>
<linearGradient id="paint12_linear_2863_18664" x1="339.442" y1="228.856" x2="339.442" y2="283.525" gradientUnits="userSpaceOnUse">
<stop stop-color="#81B9FF"/>
<stop offset="1" stop-color="#1370E4"/>
</linearGradient>
<linearGradient id="paint13_linear_2863_18664" x1="49.5292" y1="217.266" x2="31.8513" y2="231.631" gradientUnits="userSpaceOnUse">
<stop stop-color="#81B9FF"/>
<stop offset="1" stop-color="#1370E4"/>
</linearGradient>
<linearGradient id="paint14_linear_2863_18664" x1="340.333" y1="101.348" x2="356.243" y2="117.65" gradientUnits="userSpaceOnUse">
<stop stop-color="#81B9FF"/>
<stop offset="1" stop-color="#1370E4"/>
</linearGradient>
</defs>
</svg>
